<svg width="64" height="100" viewBox="0 0 64 100" fill="none" xmlns="http://www.w3.org/2000/svg">
<path d="M32 18.7499C32.8288 18.7499 33.6237 19.0792 34.2097 19.6652C34.7958 20.2513 35.125 21.0461 35.125 21.8749V34.3749C35.125 35.2037 34.7958 35.9986 34.2097 36.5846C33.6237 37.1707 32.8288 37.4999 32 37.4999C31.1712 37.4999 30.3763 37.1707 29.7903 36.5846C29.2042 35.9986 28.875 35.2037 28.875 34.3749V21.8749C28.875 21.0461 29.2042 20.2513 29.7903 19.6652C30.3763 19.0792 31.1712 18.7499 32 18.7499ZM57 68.7499C57 75.3803 54.3661 81.7392 49.6777 86.4276C44.9893 91.116 38.6304 93.7499 32 93.7499C25.3696 93.7499 19.0107 91.116 14.3223 86.4276C9.63392 81.7392 7 75.3803 7 68.7499V31.2499C7 24.6195 9.63392 18.2607 14.3223 13.5723C19.0107 8.88386 25.3696 6.24994 32 6.24994C38.6304 6.24994 44.9893 8.88386 49.6777 13.5723C54.3661 18.2607 57 24.6195 57 31.2499V68.7499ZM32 -6.10352e-05C23.712 -6.10352e-05 15.7634 3.29234 9.90291 9.15285C4.0424 15.0134 0.75 22.9619 0.75 31.2499V68.7499C0.75 77.038 4.0424 84.9865 9.90291 90.847C15.7634 96.7075 23.712 99.9999 32 99.9999C40.288 99.9999 48.2366 96.7075 54.0971 90.847C59.9576 84.9865 63.25 77.038 63.25 68.7499V31.2499C63.25 22.9619 59.9576 15.0134 54.0971 9.15285C48.2366 3.29234 40.288 -6.10352e-05 32 -6.10352e-05V-6.10352e-05Z" fill="white"/>
</svg>
